<?xml version="1.0" standalone="no"?>
<!DOCTYPE svg PUBLIC "-//W3C//DTD SVG 20010904//EN"
 "http://www.w3.org/TR/2001/REC-SVG-20010904/DTD/svg10.dtd">
<svg version="1.0" xmlns="http://www.w3.org/2000/svg"
 width="1024.000000pt" height="1024.000000pt" viewBox="0 0 1024.000000 1024.000000"
 preserveAspectRatio="xMidYMid meet">
<metadata>
Created by potrace 1.14, written by Peter Selinger 2001-2017
</metadata>
<g transform="translate(0.000000,1024.000000) scale(0.100000,-0.100000)"
fill="#000000" stroke="none">
<path d="M4879 10236 c-2 -2 -47 -6 -99 -10 -52 -4 -106 -8 -120 -10 -14 -2
-52 -7 -85 -11 -32 -4 -66 -8 -75 -10 -8 -1 -37 -6 -65 -10 -149 -21 -412 -82
-590 -137 -99 -31 -358 -125 -425 -155 -117 -53 -331 -159 -411 -205 -152 -87
-155 -89 -282 -173 -513 -339 -951 -791 -1288 -1325 -288 -458 -493 -987 -594
-1530 -29 -152 -29 -156 -40 -260 -4 -36 -9 -73 -11 -82 -25 -138 -24 -827 1
-868 2 -3 6 -32 10 -65 6 -63 45 -259 70 -360 9 -33 17 -68 19 -77 42 -168
136 -434 237 -663 41 -94 192 -399 236 -475 327 -569 705 -1078 1216 -1635
179 -196 723 -733 883 -872 29 -25 165 -146 178 -158 6 -6 47 -41 91 -79 44
-38 103 -88 130 -111 28 -24 102 -85 165 -136 63 -51 120 -98 127 -104 26 -22
43 -36 183 -144 80 -62 160 -124 179 -139 18 -14 65 -50 105 -78 39 -29 76
-57 81 -61 9 -9 127 -93 219 -157 133 -93 163 -114 182 -124 17 -9 34 -1 120
58 54 38 107 75 118 82 127 88 667 495 686 518 3 3 14 13 26 21 21 14 44 33
218 178 144 119 359 303 376 321 3 3 46 41 95 85 332 294 825 787 1065 1065
12 14 34 39 48 55 15 17 52 59 82 95 30 36 57 67 61 70 28 25 380 479 441 570
10 14 32 45 49 70 37 51 168 246 184 272 5 10 43 72 84 139 232 383 397 735
522 1112 45 134 94 310 105 377 3 14 8 34 11 45 4 11 7 27 8 35 1 8 7 42 13
75 16 84 20 111 28 180 3 33 8 62 9 65 6 11 18 252 18 365 0 123 -10 344 -18
399 -3 17 -7 54 -9 81 -4 44 -30 224 -40 280 -2 11 -7 38 -11 60 -4 22 -9 51
-11 65 -3 14 -7 33 -10 42 -3 9 -7 26 -9 38 -26 137 -121 448 -187 615 -92
234 -242 542 -307 633 -11 17 -21 33 -21 36 0 14 -167 265 -253 380 -91 123
-265 323 -387 446 -158 160 -244 238 -365 335 -28 21 -52 42 -55 45 -3 4 -57
43 -120 88 -63 45 -119 85 -125 90 -5 4 -53 34 -105 66 -52 33 -115 72 -139
87 -77 50 -412 215 -541 267 -192 77 -463 167 -600 197 -260 59 -389 81 -580
100 -36 3 -78 9 -95 11 -34 6 -601 15 -606 10z m1536 -1024 c-3 -3 -11 0 -18
7 -9 10 -8 11 6 5 10 -3 15 -9 12 -12z m70 -30 c-3 -3 -11 0 -18 7 -9 10 -8
11 6 5 10 -3 15 -9 12 -12z m-2745 -6 c0 -2 -7 -7 -16 -10 -8 -3 -12 -2 -9 4
6 10 25 14 25 6z m2855 -36 c3 -6 -1 -7 -9 -4 -18 7 -21 14 -7 14 6 0 13 -4
16 -10z m-2945 -4 c0 -2 -7 -7 -16 -10 -8 -3 -12 -2 -9 4 6 10 25 14 25 6z
m3024 -31 c11 -8 16 -15 10 -15 -5 0 -18 7 -28 15 -11 8 -16 15 -10 15 5 0 18
-7 28 -15z m-3094 -5 c-8 -5 -19 -10 -25 -10 -5 0 -3 5 5 10 8 5 20 10 25 10
6 0 3 -5 -5 -10z m-45 -20 c-3 -5 -12 -10 -18 -10 -7 0 -6 4 3 10 19 12 23 12
15 0z m3190 0 c3 -6 -1 -7 -9 -4 -18 7 -21 14 -7 14 6 0 13 -4 16 -10z m-3225
-15 c0 -2 -18 -14 -40 -25 -22 -11 -40 -18 -40 -15 0 2 17 13 38 24 42 23 42
23 42 16z m3310 -29 c19 -12 47 -28 62 -35 16 -8 26 -16 24 -18 -2 -2 -21 6
-42 18 -22 12 -56 31 -76 41 -21 11 -38 22 -38 24 0 6 33 -8 70 -30z m-3400
-20 c0 -3 -26 -19 -57 -38 -152 -87 -185 -109 -319 -208 -172 -128 -312 -250
-460 -401 -146 -151 -330 -378 -419 -517 -5 -9 -16 -22 -23 -30 -7 -8 -23 -32
-35 -54 -12 -23 -26 -48 -32 -57 -171 -279 -316 -614 -406 -941 -22 -80 -42
-156 -45 -170 -37 -188 -53 -256 -49 -215 3 28 7 61 10 75 5 26 12 63 21 114
10 60 76 304 109 401 69 208 169 439 257 594 26 46 48 86 48 88 0 8 135 219
152 237 10 11 18 23 18 27 0 4 6 14 13 21 7 7 30 38 52 68 22 30 42 57 45 60
3 3 23 28 45 55 113 142 252 288 396 415 46 41 86 77 89 80 15 15 112 91 160
125 30 22 57 42 60 46 12 16 353 228 368 229 1 0 2 -2 2 -4z m3591 -93 c8 -7
19 -13 22 -13 10 0 236 -157 296 -206 83 -67 153 -125 186 -154 78 -69 253
-246 320 -325 38 -44 71 -82 74 -85 4 -3 19 -23 36 -45 16 -22 33 -44 37 -50
240 -311 423 -653 561 -1051 49 -142 120 -416 133 -518 3 -23 9 -58 14 -78 4
-21 5 -38 1 -38 -4 0 -13 35 -20 78 -7 42 -21 111 -31 152 -11 41 -21 86 -24
100 -48 231 -210 639 -362 910 -73 130 -268 426 -304 460 -3 3 -23 28 -45 55
-125 157 -282 320 -425 445 -41 36 -83 73 -95 83 -46 41 -209 160 -316 231
-129 85 -173 118 -114 85 22 -12 47 -28 56 -36z m1697 -2673 c0 -16 -3 -11 -9
15 -4 22 -8 51 -7 65 0 16 3 11 9 -15 4 -22 8 -51 7 -65z m-7136 50 c-6 -42
-19 -46 -14 -4 2 19 7 34 11 34 4 0 6 -14 3 -30z m-10 -80 c-2 -17 -8 -32 -12
-35 -7 -5 -5 18 6 53 7 23 11 12 6 -18z m7155 -62 c-3 -7 -5 -2 -5 12 0 14 2
19 5 13 2 -7 2 -19 0 -25z m-7170 -40 c-3 -7 -5 -2 -5 12 0 14 2 19 5 13 2 -7
2 -19 0 -25z"/>
</g>
</svg>
